<?xml version="1.0" encoding="UTF-8" standalone="no"?>
<svg
   xmlns:dc="http://purl.org/dc/elements/1.1/"
   xmlns:cc="http://creativecommons.org/ns#"
   xmlns:rdf="http://www.w3.org/1999/02/22-rdf-syntax-ns#"
   xmlns:svg="http://www.w3.org/2000/svg"
   xmlns="http://www.w3.org/2000/svg"
   xmlns:sodipodi="http://sodipodi.sourceforge.net/DTD/sodipodi-0.dtd"
   xmlns:inkscape="http://www.inkscape.org/namespaces/inkscape"
   viewBox="0 0 334.42624 259.83606"
   version="1.1"
   id="svg6"
   sodipodi:docname="keywi.svg"
   inkscape:version="0.92.2 5c3e80d, 2017-08-06">
  <metadata
     id="metadata12">
    <rdf:RDF>
      <cc:Work
         rdf:about="">
        <dc:format>image/svg+xml</dc:format>
        <dc:type
           rdf:resource="http://purl.org/dc/dcmitype/StillImage" />
        <dc:title></dc:title>
      </cc:Work>
    </rdf:RDF>
  </metadata>
  <defs
     id="defs10" />
  <sodipodi:namedview
     pagecolor="#ffffff"
     bordercolor="#666666"
     borderopacity="1"
     objecttolerance="10"
     gridtolerance="10"
     guidetolerance="10"
     inkscape:pageopacity="0"
     inkscape:pageshadow="2"
     inkscape:window-width="1069"
     inkscape:window-height="651"
     id="namedview8"
     showgrid="false"
     inkscape:zoom="0.86117645"
     inkscape:cx="255.79963"
     inkscape:cy="37.021852"
     inkscape:window-x="0"
     inkscape:window-y="0"
     inkscape:window-maximized="0"
     inkscape:current-layer="svg6" />
  <g
     transform="translate(-152.46 -70.492)"
     id="g4">
    <path
       d="m261.03 177.92s22.439 52.357 97.235 67.316l-6.1197 38.418c-13.933 1.5322-33.428 6.2079-31.69 24.767 4.5986-7.6848 11.962-9.3513 20.131-11.168-0.36932 4.6307-0.46276 9.2157-0.12376 13.84 4.3799-8.0791 10.663-13.16 17.803-14.18 4.3178-0.61682 9.4987 0.54932 10.714-1.5555 1.2856-2.2267-2.8943-2.9599-2.8943-5.2442 0-5.7796 2.0399-28.218 11.899-38.758 0 0 22.779-2.3799 25.839 20.059s-3.3998 25.159-6.4596 26.518c-10.735 5.0187-31.404 5.301-36.984 17.89 8.779-2.2385 17.739-2.9446 26.785-3.2709-1.0956 4.0712-2.3038 8.0937-2.7063 12.301 4.7597-2.3799 15.286-9.9213 25.825-10.941 4.8115-0.46562 10.325 0.84006 11.659-1.4709 1.0204-1.7675-5.4804-3.5623-6.2195-10.768-1.3599-13.259 2.7199-26.519 19.039-42.498s40.123-21.748 46.577-62.412c7.1539-45.074-1.4982-69.564-21.828-89.352-20.354-19.812-62.487-31.486-86.966-32.166s-40.798 2.0399-65.956 14.279-27.878 27.198-47.597 25.159c-47.697-7.0564-64.48 5.7833-67.996 52.017l0.34 21.079s-29.982 35.282-34.338 84.315c0 0-2.5751 14.407 1.4995 20.506 7.041-24.476 15.3-67.154 45.11-97.445 0 0 30.772 4.3272 57.425-17.236z"
       fill-rule="evenodd"
       id="path2" />
  </g>
  <g
     id="g5366"
     transform="matrix(0,-0.20466423,0.20466423,0,16.040931,169.77344)"
     style="fill:#ffffff;stroke:none">
    <g
       id="g5364"
       transform="translate(-33.787,-18.746)"
       style="fill:#ffffff;stroke:none">
      <path
         id="path5360"
         d="m 462.41,853.12 -11.093,-9.2634 v -335.77 h -18.298 v 320.56 l -5.8897,-4.9176 v -326.79 a 9.1499,9.1499 0 1 0 -18.298,0 v 311.52 l -9.149,-7.6051 v -295.51 l -28.705,2.0014 20.185,-47.632 c -50.887,-25.61 -85.772,-78.318 -85.772,-139.18 0,-86.004 69.701,-155.76 155.7,-155.76 85.999,0 155.7,69.759 155.7,155.76 0,60.862 -34.885,113.57 -85.772,139.18 l 20.185,47.632 -31.907,-2.2301 7.7767,17.326 -14.581,13.095 -9.6065,-22.587 h -16.983 v 46.431 l -9.149,8.1769 36.31,33.508 -28.476,33.508 28.476,33.508 -28.476,33.508 28.476,33.508 -28.476,33.508 28.476,33.565 -50.663,50.949 z m -1.3152,-550.37 c 29.899,0 54.151,-24.195 54.151,-54.094 0,-29.899 -24.252,-54.151 -54.151,-54.151 -29.899,0 -54.151,24.252 -54.151,54.151 0,29.899 24.252,54.094 54.151,54.094 z"
         inkscape:connector-curvature="0"
         style="fill:#ffffff;stroke:none" />
      <path
         id="path5362"
         d="m 462.41,853.12 -62.728,-52.264 v -295.51 l -28.705,2.0014 20.185,-47.632 c -50.887,-25.61 -85.772,-78.318 -85.772,-139.18 0,-86.004 69.701,-155.76 155.7,-155.76 85.999,0 155.7,69.759 155.7,155.76 0,60.862 -34.885,113.57 -85.772,139.18 l 20.185,47.632 -31.907,-2.2301 7.7767,17.326 -50.32,45.116 36.31,33.508 -28.476,33.508 28.476,33.508 -28.476,33.508 28.476,33.508 -28.476,33.508 28.476,33.565 -50.663,50.949 z m -1.3152,-550.37 c 29.899,0 54.151,-24.195 54.151,-54.094 0,-29.899 -24.252,-54.151 -54.151,-54.151 -29.899,0 -54.151,24.252 -54.151,54.151 0,29.899 24.252,54.094 54.151,54.094 z"
         inkscape:connector-curvature="0"
         style="fill:#ffffff;stroke:none;stroke-width:5.48939991;stroke-linecap:round;stroke-linejoin:round" />
    </g>
  </g>
</svg>
